<svg width="24" height="24" viewBox="0 0 24 24" fill="none" xmlns="http://www.w3.org/2000/svg">
<path d="M12 17C13.1046 17 14 16.1046 14 15C14 13.8954 13.1046 13 12 13C10.8954 13 10 13.8954 10 15C10 16.1046 10.8954 17 12 17Z" fill="#2B2B2B"/>
<path d="M4.5 13.5C4.5 11.614 4.5 10.672 5.086 10.086C5.672 9.5 6.614 9.5 8.5 9.5H15.5C17.386 9.5 18.328 9.5 18.914 10.086C19.5 10.672 19.5 11.614 19.5 13.5V14.5C19.5 17.328 19.5 18.743 18.621 19.621C17.743 20.5 16.328 20.5 13.5 20.5H10.5C7.672 20.5 6.257 20.5 5.379 19.621C4.5 18.743 4.5 17.328 4.5 14.5V13.5Z" stroke="#2B2B2B" stroke-width="2"/>
<path d="M16.5 9.5V8C16.5 6.80653 16.0259 5.66193 15.182 4.81802C14.3381 3.97411 13.1935 3.5 12 3.5C10.8065 3.5 9.66193 3.97411 8.81802 4.81802C7.97411 5.66193 7.5 6.80653 7.5 8V9.5" stroke="#2B2B2B" stroke-width="2" stroke-linecap="round"/>
</svg>
